<svg width="1000" height="1000" viewBox="0 0 1000 1000" fill="none" xmlns="http://www.w3.org/2000/svg">
<g clip-path="url(#clip0_133_3)">
<mask id="path-1-inside-1_133_3" fill="white">
<path d="M0 0H100V100H0V0Z"/>
</mask>
<path d="M0 0V-1H-1V0H0ZM100 0H101V-1H100V0ZM100 100V101H101V100H100ZM0 100H-1V101H0V100ZM0 1H100V-1H0V1ZM99 0V100H101V0H99ZM100 99H0V101H100V99ZM1 100V0H-1V100H1Z" fill="#5E5E5E" mask="url(#path-1-inside-1_133_3)"/>
<mask id="path-3-inside-2_133_3" fill="white">
<path d="M0 100H100V200H0V100Z"/>
</mask>
<path d="M0 100V99H-1V100H0ZM100 100H101V99H100V100ZM100 200V201H101V200H100ZM0 200H-1V201H0V200ZM0 101H100V99H0V101ZM99 100V200H101V100H99ZM100 199H0V201H100V199ZM1 200V100H-1V200H1Z" fill="#5E5E5E" mask="url(#path-3-inside-2_133_3)"/>
<mask id="path-5-inside-3_133_3" fill="white">
<path d="M100 100H200V200H100V100Z"/>
</mask>
<path d="M100 100V99H99V100H100ZM200 100H201V99H200V100ZM200 200V201H201V200H200ZM100 200H99V201H100V200ZM100 101H200V99H100V101ZM199 100V200H201V100H199ZM200 199H100V201H200V199ZM101 200V100H99V200H101Z" fill="#5E5E5E" mask="url(#path-5-inside-3_133_3)"/>
<mask id="path-7-inside-4_133_3" fill="white">
<path d="M200 100H300V200H200V100Z"/>
</mask>
<path d="M200 100V99H199V100H200ZM300 100H301V99H300V100ZM300 200V201H301V200H300ZM200 200H199V201H200V200ZM200 101H300V99H200V101ZM299 100V200H301V100H299ZM300 199H200V201H300V199ZM201 200V100H199V200H201Z" fill="#5E5E5E" mask="url(#path-7-inside-4_133_3)"/>
<mask id="path-9-inside-5_133_3" fill="white">
<path d="M300 100H400V200H300V100Z"/>
</mask>
<path d="M300 100V99H299V100H300ZM400 100H401V99H400V100ZM400 200V201H401V200H400ZM300 200H299V201H300V200ZM300 101H400V99H300V101ZM399 100V200H401V100H399ZM400 199H300V201H400V199ZM301 200V100H299V200H301Z" fill="#5E5E5E" mask="url(#path-9-inside-5_133_3)"/>
<mask id="path-11-inside-6_133_3" fill="white">
<path d="M400 100H500V200H400V100Z"/>
</mask>
<path d="M400 100V99H399V100H400ZM500 100H501V99H500V100ZM500 200V201H501V200H500ZM400 200H399V201H400V200ZM400 101H500V99H400V101ZM499 100V200H501V100H499ZM500 199H400V201H500V199ZM401 200V100H399V200H401Z" fill="#5E5E5E" mask="url(#path-11-inside-6_133_3)"/>
<mask id="path-13-inside-7_133_3" fill="white">
<path d="M500 100H600V200H500V100Z"/>
</mask>
<path d="M500 100V99H499V100H500ZM600 100H601V99H600V100ZM600 200V201H601V200H600ZM500 200H499V201H500V200ZM500 101H600V99H500V101ZM599 100V200H601V100H599ZM600 199H500V201H600V199ZM501 200V100H499V200H501Z" fill="#5E5E5E" mask="url(#path-13-inside-7_133_3)"/>
<mask id="path-15-inside-8_133_3" fill="white">
<path d="M600 100H700V200H600V100Z"/>
</mask>
<path d="M600 100V99H599V100H600ZM700 100H701V99H700V100ZM700 200V201H701V200H700ZM600 200H599V201H600V200ZM600 101H700V99H600V101ZM699 100V200H701V100H699ZM700 199H600V201H700V199ZM601 200V100H599V200H601Z" fill="#5E5E5E" mask="url(#path-15-inside-8_133_3)"/>
<mask id="path-17-inside-9_133_3" fill="white">
<path d="M700 100H800V200H700V100Z"/>
</mask>
<path d="M700 100V99H699V100H700ZM800 100H801V99H800V100ZM800 200V201H801V200H800ZM700 200H699V201H700V200ZM700 101H800V99H700V101ZM799 100V200H801V100H799ZM800 199H700V201H800V199ZM701 200V100H699V200H701Z" fill="#5E5E5E" mask="url(#path-17-inside-9_133_3)"/>
<mask id="path-19-inside-10_133_3" fill="white">
<path d="M800 100H900V200H800V100Z"/>
</mask>
<path d="M800 100V99H799V100H800ZM900 100H901V99H900V100ZM900 200V201H901V200H900ZM800 200H799V201H800V200ZM800 101H900V99H800V101ZM899 100V200H901V100H899ZM900 199H800V201H900V199ZM801 200V100H799V200H801Z" fill="#5E5E5E" mask="url(#path-19-inside-10_133_3)"/>
<mask id="path-21-inside-11_133_3" fill="white">
<path d="M900 100H1000V200H900V100Z"/>
</mask>
<path d="M900 100V99H899V100H900ZM1000 100H1001V99H1000V100ZM1000 200V201H1001V200H1000ZM900 200H899V201H900V200ZM900 101H1000V99H900V101ZM999 100V200H1001V100H999ZM1000 199H900V201H1000V199ZM901 200V100H899V200H901Z" fill="#5E5E5E" mask="url(#path-21-inside-11_133_3)"/>
<mask id="path-23-inside-12_133_3" fill="white">
<path d="M300 0H400V100H300V0Z"/>
</mask>
<path d="M300 0V-1H299V0H300ZM400 0H401V-1H400V0ZM400 100V101H401V100H400ZM300 100H299V101H300V100ZM300 1H400V-1H300V1ZM399 0V100H401V0H399ZM400 99H300V101H400V99ZM301 100V0H299V100H301Z" fill="#5E5E5E" mask="url(#path-23-inside-12_133_3)"/>
<mask id="path-25-inside-13_133_3" fill="white">
<path d="M400 0H500V100H400V0Z"/>
</mask>
<path d="M400 0V-1H399V0H400ZM500 0H501V-1H500V0ZM500 100V101H501V100H500ZM400 100H399V101H400V100ZM400 1H500V-1H400V1ZM499 0V100H501V0H499ZM500 99H400V101H500V99ZM401 100V0H399V100H401Z" fill="#5E5E5E" mask="url(#path-25-inside-13_133_3)"/>
<mask id="path-27-inside-14_133_3" fill="white">
<path d="M500 0H600V100H500V0Z"/>
</mask>
<path d="M500 0V-1H499V0H500ZM600 0H601V-1H600V0ZM600 100V101H601V100H600ZM500 100H499V101H500V100ZM500 1H600V-1H500V1ZM599 0V100H601V0H599ZM600 99H500V101H600V99ZM501 100V0H499V100H501Z" fill="#5E5E5E" mask="url(#path-27-inside-14_133_3)"/>
<mask id="path-29-inside-15_133_3" fill="white">
<path d="M600 0H700V100H600V0Z"/>
</mask>
<path d="M600 0V-1H599V0H600ZM700 0H701V-1H700V0ZM700 100V101H701V100H700ZM600 100H599V101H600V100ZM600 1H700V-1H600V1ZM699 0V100H701V0H699ZM700 99H600V101H700V99ZM601 100V0H599V100H601Z" fill="#5E5E5E" mask="url(#path-29-inside-15_133_3)"/>
<mask id="path-31-inside-16_133_3" fill="white">
<path d="M700 0H800V100H700V0Z"/>
</mask>
<path d="M700 0V-1H699V0H700ZM800 0H801V-1H800V0ZM800 100V101H801V100H800ZM700 100H699V101H700V100ZM700 1H800V-1H700V1ZM799 0V100H801V0H799ZM800 99H700V101H800V99ZM701 100V0H699V100H701Z" fill="#5E5E5E" mask="url(#path-31-inside-16_133_3)"/>
<mask id="path-33-inside-17_133_3" fill="white">
<path d="M800 0H900V100H800V0Z"/>
</mask>
<path d="M800 0V-1H799V0H800ZM900 0H901V-1H900V0ZM900 100V101H901V100H900ZM800 100H799V101H800V100ZM800 1H900V-1H800V1ZM899 0V100H901V0H899ZM900 99H800V101H900V99ZM801 100V0H799V100H801Z" fill="#5E5E5E" mask="url(#path-33-inside-17_133_3)"/>
<mask id="path-35-inside-18_133_3" fill="white">
<path d="M900 0H1000V100H900V0Z"/>
</mask>
<path d="M900 0V-1H899V0H900ZM1000 0H1001V-1H1000V0ZM1000 100V101H1001V100H1000ZM900 100H899V101H900V100ZM900 1H1000V-1H900V1ZM999 0V100H1001V0H999ZM1000 99H900V101H1000V99ZM901 100V0H899V100H901Z" fill="#5E5E5E" mask="url(#path-35-inside-18_133_3)"/>
<mask id="path-37-inside-19_133_3" fill="white">
<path d="M100 0H200V100H100V0Z"/>
</mask>
<path d="M100 0V-1H99V0H100ZM200 0H201V-1H200V0ZM200 100V101H201V100H200ZM100 100H99V101H100V100ZM100 1H200V-1H100V1ZM199 0V100H201V0H199ZM200 99H100V101H200V99ZM101 100V0H99V100H101Z" fill="#5E5E5E" mask="url(#path-37-inside-19_133_3)"/>
<mask id="path-39-inside-20_133_3" fill="white">
<path d="M200 0H300V100H200V0Z"/>
</mask>
<path d="M200 0V-1H199V0H200ZM300 0H301V-1H300V0ZM300 100V101H301V100H300ZM200 100H199V101H200V100ZM200 1H300V-1H200V1ZM299 0V100H301V0H299ZM300 99H200V101H300V99ZM201 100V0H199V100H201Z" fill="#5E5E5E" mask="url(#path-39-inside-20_133_3)"/>
<mask id="path-41-inside-21_133_3" fill="white">
<path d="M0 200H100V300H0V200Z"/>
</mask>
<path d="M0 200V199H-1V200H0ZM100 200H101V199H100V200ZM100 300V301H101V300H100ZM0 300H-1V301H0V300ZM0 201H100V199H0V201ZM99 200V300H101V200H99ZM100 299H0V301H100V299ZM1 300V200H-1V300H1Z" fill="#5E5E5E" mask="url(#path-41-inside-21_133_3)"/>
<mask id="path-43-inside-22_133_3" fill="white">
<path d="M0 300H100V400H0V300Z"/>
</mask>
<path d="M0 300V299H-1V300H0ZM100 300H101V299H100V300ZM100 400V401H101V400H100ZM0 400H-1V401H0V400ZM0 301H100V299H0V301ZM99 300V400H101V300H99ZM100 399H0V401H100V399ZM1 400V300H-1V400H1Z" fill="#5E5E5E" mask="url(#path-43-inside-22_133_3)"/>
<mask id="path-45-inside-23_133_3" fill="white">
<path d="M100 300H200V400H100V300Z"/>
</mask>
<path d="M100 300V299H99V300H100ZM200 300H201V299H200V300ZM200 400V401H201V400H200ZM100 400H99V401H100V400ZM100 301H200V299H100V301ZM199 300V400H201V300H199ZM200 399H100V401H200V399ZM101 400V300H99V400H101Z" fill="#5E5E5E" mask="url(#path-45-inside-23_133_3)"/>
<mask id="path-47-inside-24_133_3" fill="white">
<path d="M200 300H300V400H200V300Z"/>
</mask>
<path d="M200 300V299H199V300H200ZM300 300H301V299H300V300ZM300 400V401H301V400H300ZM200 400H199V401H200V400ZM200 301H300V299H200V301ZM299 300V400H301V300H299ZM300 399H200V401H300V399ZM201 400V300H199V400H201Z" fill="#5E5E5E" mask="url(#path-47-inside-24_133_3)"/>
<mask id="path-49-inside-25_133_3" fill="white">
<path d="M300 300H400V400H300V300Z"/>
</mask>
<path d="M300 300V299H299V300H300ZM400 300H401V299H400V300ZM400 400V401H401V400H400ZM300 400H299V401H300V400ZM300 301H400V299H300V301ZM399 300V400H401V300H399ZM400 399H300V401H400V399ZM301 400V300H299V400H301Z" fill="#5E5E5E" mask="url(#path-49-inside-25_133_3)"/>
<mask id="path-51-inside-26_133_3" fill="white">
<path d="M400 300H500V400H400V300Z"/>
</mask>
<path d="M400 300V299H399V300H400ZM500 300H501V299H500V300ZM500 400V401H501V400H500ZM400 400H399V401H400V400ZM400 301H500V299H400V301ZM499 300V400H501V300H499ZM500 399H400V401H500V399ZM401 400V300H399V400H401Z" fill="#5E5E5E" mask="url(#path-51-inside-26_133_3)"/>
<mask id="path-53-inside-27_133_3" fill="white">
<path d="M500 300H600V400H500V300Z"/>
</mask>
<path d="M500 300V299H499V300H500ZM600 300H601V299H600V300ZM600 400V401H601V400H600ZM500 400H499V401H500V400ZM500 301H600V299H500V301ZM599 300V400H601V300H599ZM600 399H500V401H600V399ZM501 400V300H499V400H501Z" fill="#5E5E5E" mask="url(#path-53-inside-27_133_3)"/>
<mask id="path-55-inside-28_133_3" fill="white">
<path d="M600 300H700V400H600V300Z"/>
</mask>
<path d="M600 300V299H599V300H600ZM700 300H701V299H700V300ZM700 400V401H701V400H700ZM600 400H599V401H600V400ZM600 301H700V299H600V301ZM699 300V400H701V300H699ZM700 399H600V401H700V399ZM601 400V300H599V400H601Z" fill="#5E5E5E" mask="url(#path-55-inside-28_133_3)"/>
<mask id="path-57-inside-29_133_3" fill="white">
<path d="M700 300H800V400H700V300Z"/>
</mask>
<path d="M700 300V299H699V300H700ZM800 300H801V299H800V300ZM800 400V401H801V400H800ZM700 400H699V401H700V400ZM700 301H800V299H700V301ZM799 300V400H801V300H799ZM800 399H700V401H800V399ZM701 400V300H699V400H701Z" fill="#5E5E5E" mask="url(#path-57-inside-29_133_3)"/>
<mask id="path-59-inside-30_133_3" fill="white">
<path d="M800 300H900V400H800V300Z"/>
</mask>
<path d="M800 300V299H799V300H800ZM900 300H901V299H900V300ZM900 400V401H901V400H900ZM800 400H799V401H800V400ZM800 301H900V299H800V301ZM899 300V400H901V300H899ZM900 399H800V401H900V399ZM801 400V300H799V400H801Z" fill="#5E5E5E" mask="url(#path-59-inside-30_133_3)"/>
<mask id="path-61-inside-31_133_3" fill="white">
<path d="M900 300H1000V400H900V300Z"/>
</mask>
<path d="M900 300V299H899V300H900ZM1000 300H1001V299H1000V300ZM1000 400V401H1001V400H1000ZM900 400H899V401H900V400ZM900 301H1000V299H900V301ZM999 300V400H1001V300H999ZM1000 399H900V401H1000V399ZM901 400V300H899V400H901Z" fill="#5E5E5E" mask="url(#path-61-inside-31_133_3)"/>
<mask id="path-63-inside-32_133_3" fill="white">
<path d="M300 200H400V300H300V200Z"/>
</mask>
<path d="M300 200V199H299V200H300ZM400 200H401V199H400V200ZM400 300V301H401V300H400ZM300 300H299V301H300V300ZM300 201H400V199H300V201ZM399 200V300H401V200H399ZM400 299H300V301H400V299ZM301 300V200H299V300H301Z" fill="#5E5E5E" mask="url(#path-63-inside-32_133_3)"/>
<mask id="path-65-inside-33_133_3" fill="white">
<path d="M400 200H500V300H400V200Z"/>
</mask>
<path d="M400 200V199H399V200H400ZM500 200H501V199H500V200ZM500 300V301H501V300H500ZM400 300H399V301H400V300ZM400 201H500V199H400V201ZM499 200V300H501V200H499ZM500 299H400V301H500V299ZM401 300V200H399V300H401Z" fill="#5E5E5E" mask="url(#path-65-inside-33_133_3)"/>
<mask id="path-67-inside-34_133_3" fill="white">
<path d="M500 200H600V300H500V200Z"/>
</mask>
<path d="M500 200V199H499V200H500ZM600 200H601V199H600V200ZM600 300V301H601V300H600ZM500 300H499V301H500V300ZM500 201H600V199H500V201ZM599 200V300H601V200H599ZM600 299H500V301H600V299ZM501 300V200H499V300H501Z" fill="#5E5E5E" mask="url(#path-67-inside-34_133_3)"/>
<mask id="path-69-inside-35_133_3" fill="white">
<path d="M600 200H700V300H600V200Z"/>
</mask>
<path d="M600 200V199H599V200H600ZM700 200H701V199H700V200ZM700 300V301H701V300H700ZM600 300H599V301H600V300ZM600 201H700V199H600V201ZM699 200V300H701V200H699ZM700 299H600V301H700V299ZM601 300V200H599V300H601Z" fill="#5E5E5E" mask="url(#path-69-inside-35_133_3)"/>
<mask id="path-71-inside-36_133_3" fill="white">
<path d="M700 200H800V300H700V200Z"/>
</mask>
<path d="M700 200V199H699V200H700ZM800 200H801V199H800V200ZM800 300V301H801V300H800ZM700 300H699V301H700V300ZM700 201H800V199H700V201ZM799 200V300H801V200H799ZM800 299H700V301H800V299ZM701 300V200H699V300H701Z" fill="#5E5E5E" mask="url(#path-71-inside-36_133_3)"/>
<mask id="path-73-inside-37_133_3" fill="white">
<path d="M800 200H900V300H800V200Z"/>
</mask>
<path d="M800 200V199H799V200H800ZM900 200H901V199H900V200ZM900 300V301H901V300H900ZM800 300H799V301H800V300ZM800 201H900V199H800V201ZM899 200V300H901V200H899ZM900 299H800V301H900V299ZM801 300V200H799V300H801Z" fill="#5E5E5E" mask="url(#path-73-inside-37_133_3)"/>
<mask id="path-75-inside-38_133_3" fill="white">
<path d="M900 200H1000V300H900V200Z"/>
</mask>
<path d="M900 200V199H899V200H900ZM1000 200H1001V199H1000V200ZM1000 300V301H1001V300H1000ZM900 300H899V301H900V300ZM900 201H1000V199H900V201ZM999 200V300H1001V200H999ZM1000 299H900V301H1000V299ZM901 300V200H899V300H901Z" fill="#5E5E5E" mask="url(#path-75-inside-38_133_3)"/>
<mask id="path-77-inside-39_133_3" fill="white">
<path d="M100 200H200V300H100V200Z"/>
</mask>
<path d="M100 200V199H99V200H100ZM200 200H201V199H200V200ZM200 300V301H201V300H200ZM100 300H99V301H100V300ZM100 201H200V199H100V201ZM199 200V300H201V200H199ZM200 299H100V301H200V299ZM101 300V200H99V300H101Z" fill="#5E5E5E" mask="url(#path-77-inside-39_133_3)"/>
<mask id="path-79-inside-40_133_3" fill="white">
<path d="M200 200H300V300H200V200Z"/>
</mask>
<path d="M200 200V199H199V200H200ZM300 200H301V199H300V200ZM300 300V301H301V300H300ZM200 300H199V301H200V300ZM200 201H300V199H200V201ZM299 200V300H301V200H299ZM300 299H200V301H300V299ZM201 300V200H199V300H201Z" fill="#5E5E5E" mask="url(#path-79-inside-40_133_3)"/>
<mask id="path-81-inside-41_133_3" fill="white">
<path d="M0 400H100V500H0V400Z"/>
</mask>
<path d="M0 400V399H-1V400H0ZM100 400H101V399H100V400ZM100 500V501H101V500H100ZM0 500H-1V501H0V500ZM0 401H100V399H0V401ZM99 400V500H101V400H99ZM100 499H0V501H100V499ZM1 500V400H-1V500H1Z" fill="#5E5E5E" mask="url(#path-81-inside-41_133_3)"/>
<mask id="path-83-inside-42_133_3" fill="white">
<path d="M0 500H100V600H0V500Z"/>
</mask>
<path d="M0 500V499H-1V500H0ZM100 500H101V499H100V500ZM100 600V601H101V600H100ZM0 600H-1V601H0V600ZM0 501H100V499H0V501ZM99 500V600H101V500H99ZM100 599H0V601H100V599ZM1 600V500H-1V600H1Z" fill="#5E5E5E" mask="url(#path-83-inside-42_133_3)"/>
<mask id="path-85-inside-43_133_3" fill="white">
<path d="M100 500H200V600H100V500Z"/>
</mask>
<path d="M100 500V499H99V500H100ZM200 500H201V499H200V500ZM200 600V601H201V600H200ZM100 600H99V601H100V600ZM100 501H200V499H100V501ZM199 500V600H201V500H199ZM200 599H100V601H200V599ZM101 600V500H99V600H101Z" fill="#5E5E5E" mask="url(#path-85-inside-43_133_3)"/>
<mask id="path-87-inside-44_133_3" fill="white">
<path d="M200 500H300V600H200V500Z"/>
</mask>
<path d="M200 500V499H199V500H200ZM300 500H301V499H300V500ZM300 600V601H301V600H300ZM200 600H199V601H200V600ZM200 501H300V499H200V501ZM299 500V600H301V500H299ZM300 599H200V601H300V599ZM201 600V500H199V600H201Z" fill="#5E5E5E" mask="url(#path-87-inside-44_133_3)"/>
<mask id="path-89-inside-45_133_3" fill="white">
<path d="M300 500H400V600H300V500Z"/>
</mask>
<path d="M300 500V499H299V500H300ZM400 500H401V499H400V500ZM400 600V601H401V600H400ZM300 600H299V601H300V600ZM300 501H400V499H300V501ZM399 500V600H401V500H399ZM400 599H300V601H400V599ZM301 600V500H299V600H301Z" fill="#5E5E5E" mask="url(#path-89-inside-45_133_3)"/>
<mask id="path-91-inside-46_133_3" fill="white">
<path d="M400 500H500V600H400V500Z"/>
</mask>
<path d="M400 500V499H399V500H400ZM500 500H501V499H500V500ZM500 600V601H501V600H500ZM400 600H399V601H400V600ZM400 501H500V499H400V501ZM499 500V600H501V500H499ZM500 599H400V601H500V599ZM401 600V500H399V600H401Z" fill="#5E5E5E" mask="url(#path-91-inside-46_133_3)"/>
<mask id="path-93-inside-47_133_3" fill="white">
<path d="M500 500H600V600H500V500Z"/>
</mask>
<path d="M500 500V499H499V500H500ZM600 500H601V499H600V500ZM600 600V601H601V600H600ZM500 600H499V601H500V600ZM500 501H600V499H500V501ZM599 500V600H601V500H599ZM600 599H500V601H600V599ZM501 600V500H499V600H501Z" fill="#5E5E5E" mask="url(#path-93-inside-47_133_3)"/>
<mask id="path-95-inside-48_133_3" fill="white">
<path d="M600 500H700V600H600V500Z"/>
</mask>
<path d="M600 500V499H599V500H600ZM700 500H701V499H700V500ZM700 600V601H701V600H700ZM600 600H599V601H600V600ZM600 501H700V499H600V501ZM699 500V600H701V500H699ZM700 599H600V601H700V599ZM601 600V500H599V600H601Z" fill="#5E5E5E" mask="url(#path-95-inside-48_133_3)"/>
<mask id="path-97-inside-49_133_3" fill="white">
<path d="M700 500H800V600H700V500Z"/>
</mask>
<path d="M700 500V499H699V500H700ZM800 500H801V499H800V500ZM800 600V601H801V600H800ZM700 600H699V601H700V600ZM700 501H800V499H700V501ZM799 500V600H801V500H799ZM800 599H700V601H800V599ZM701 600V500H699V600H701Z" fill="#5E5E5E" mask="url(#path-97-inside-49_133_3)"/>
<mask id="path-99-inside-50_133_3" fill="white">
<path d="M800 500H900V600H800V500Z"/>
</mask>
<path d="M800 500V499H799V500H800ZM900 500H901V499H900V500ZM900 600V601H901V600H900ZM800 600H799V601H800V600ZM800 501H900V499H800V501ZM899 500V600H901V500H899ZM900 599H800V601H900V599ZM801 600V500H799V600H801Z" fill="#5E5E5E" mask="url(#path-99-inside-50_133_3)"/>
<mask id="path-101-inside-51_133_3" fill="white">
<path d="M900 500H1000V600H900V500Z"/>
</mask>
<path d="M900 500V499H899V500H900ZM1000 500H1001V499H1000V500ZM1000 600V601H1001V600H1000ZM900 600H899V601H900V600ZM900 501H1000V499H900V501ZM999 500V600H1001V500H999ZM1000 599H900V601H1000V599ZM901 600V500H899V600H901Z" fill="#5E5E5E" mask="url(#path-101-inside-51_133_3)"/>
<mask id="path-103-inside-52_133_3" fill="white">
<path d="M300 400H400V500H300V400Z"/>
</mask>
<path d="M300 400V399H299V400H300ZM400 400H401V399H400V400ZM400 500V501H401V500H400ZM300 500H299V501H300V500ZM300 401H400V399H300V401ZM399 400V500H401V400H399ZM400 499H300V501H400V499ZM301 500V400H299V500H301Z" fill="#5E5E5E" mask="url(#path-103-inside-52_133_3)"/>
<mask id="path-105-inside-53_133_3" fill="white">
<path d="M400 400H500V500H400V400Z"/>
</mask>
<path d="M400 400V399H399V400H400ZM500 400H501V399H500V400ZM500 500V501H501V500H500ZM400 500H399V501H400V500ZM400 401H500V399H400V401ZM499 400V500H501V400H499ZM500 499H400V501H500V499ZM401 500V400H399V500H401Z" fill="#5E5E5E" mask="url(#path-105-inside-53_133_3)"/>
<mask id="path-107-inside-54_133_3" fill="white">
<path d="M500 400H600V500H500V400Z"/>
</mask>
<path d="M500 400V399H499V400H500ZM600 400H601V399H600V400ZM600 500V501H601V500H600ZM500 500H499V501H500V500ZM500 401H600V399H500V401ZM599 400V500H601V400H599ZM600 499H500V501H600V499ZM501 500V400H499V500H501Z" fill="#5E5E5E" mask="url(#path-107-inside-54_133_3)"/>
<mask id="path-109-inside-55_133_3" fill="white">
<path d="M600 400H700V500H600V400Z"/>
</mask>
<path d="M600 400V399H599V400H600ZM700 400H701V399H700V400ZM700 500V501H701V500H700ZM600 500H599V501H600V500ZM600 401H700V399H600V401ZM699 400V500H701V400H699ZM700 499H600V501H700V499ZM601 500V400H599V500H601Z" fill="#5E5E5E" mask="url(#path-109-inside-55_133_3)"/>
<mask id="path-111-inside-56_133_3" fill="white">
<path d="M700 400H800V500H700V400Z"/>
</mask>
<path d="M700 400V399H699V400H700ZM800 400H801V399H800V400ZM800 500V501H801V500H800ZM700 500H699V501H700V500ZM700 401H800V399H700V401ZM799 400V500H801V400H799ZM800 499H700V501H800V499ZM701 500V400H699V500H701Z" fill="#5E5E5E" mask="url(#path-111-inside-56_133_3)"/>
<mask id="path-113-inside-57_133_3" fill="white">
<path d="M800 400H900V500H800V400Z"/>
</mask>
<path d="M800 400V399H799V400H800ZM900 400H901V399H900V400ZM900 500V501H901V500H900ZM800 500H799V501H800V500ZM800 401H900V399H800V401ZM899 400V500H901V400H899ZM900 499H800V501H900V499ZM801 500V400H799V500H801Z" fill="#5E5E5E" mask="url(#path-113-inside-57_133_3)"/>
<mask id="path-115-inside-58_133_3" fill="white">
<path d="M900 400H1000V500H900V400Z"/>
</mask>
<path d="M900 400V399H899V400H900ZM1000 400H1001V399H1000V400ZM1000 500V501H1001V500H1000ZM900 500H899V501H900V500ZM900 401H1000V399H900V401ZM999 400V500H1001V400H999ZM1000 499H900V501H1000V499ZM901 500V400H899V500H901Z" fill="#5E5E5E" mask="url(#path-115-inside-58_133_3)"/>
<mask id="path-117-inside-59_133_3" fill="white">
<path d="M100 400H200V500H100V400Z"/>
</mask>
<path d="M100 400V399H99V400H100ZM200 400H201V399H200V400ZM200 500V501H201V500H200ZM100 500H99V501H100V500ZM100 401H200V399H100V401ZM199 400V500H201V400H199ZM200 499H100V501H200V499ZM101 500V400H99V500H101Z" fill="#5E5E5E" mask="url(#path-117-inside-59_133_3)"/>
<mask id="path-119-inside-60_133_3" fill="white">
<path d="M200 400H300V500H200V400Z"/>
</mask>
<path d="M200 400V399H199V400H200ZM300 400H301V399H300V400ZM300 500V501H301V500H300ZM200 500H199V501H200V500ZM200 401H300V399H200V401ZM299 400V500H301V400H299ZM300 499H200V501H300V499ZM201 500V400H199V500H201Z" fill="#5E5E5E" mask="url(#path-119-inside-60_133_3)"/>
<mask id="path-121-inside-61_133_3" fill="white">
<path d="M0 600H100V700H0V600Z"/>
</mask>
<path d="M0 600V599H-1V600H0ZM100 600H101V599H100V600ZM100 700V701H101V700H100ZM0 700H-1V701H0V700ZM0 601H100V599H0V601ZM99 600V700H101V600H99ZM100 699H0V701H100V699ZM1 700V600H-1V700H1Z" fill="#5E5E5E" mask="url(#path-121-inside-61_133_3)"/>
<mask id="path-123-inside-62_133_3" fill="white">
<path d="M0 700H100V800H0V700Z"/>
</mask>
<path d="M0 700V699H-1V700H0ZM100 700H101V699H100V700ZM100 800V801H101V800H100ZM0 800H-1V801H0V800ZM0 701H100V699H0V701ZM99 700V800H101V700H99ZM100 799H0V801H100V799ZM1 800V700H-1V800H1Z" fill="#5E5E5E" mask="url(#path-123-inside-62_133_3)"/>
<mask id="path-125-inside-63_133_3" fill="white">
<path d="M100 700H200V800H100V700Z"/>
</mask>
<path d="M100 700V699H99V700H100ZM200 700H201V699H200V700ZM200 800V801H201V800H200ZM100 800H99V801H100V800ZM100 701H200V699H100V701ZM199 700V800H201V700H199ZM200 799H100V801H200V799ZM101 800V700H99V800H101Z" fill="#5E5E5E" mask="url(#path-125-inside-63_133_3)"/>
<mask id="path-127-inside-64_133_3" fill="white">
<path d="M200 700H300V800H200V700Z"/>
</mask>
<path d="M200 700V699H199V700H200ZM300 700H301V699H300V700ZM300 800V801H301V800H300ZM200 800H199V801H200V800ZM200 701H300V699H200V701ZM299 700V800H301V700H299ZM300 799H200V801H300V799ZM201 800V700H199V800H201Z" fill="#5E5E5E" mask="url(#path-127-inside-64_133_3)"/>
<mask id="path-129-inside-65_133_3" fill="white">
<path d="M300 700H400V800H300V700Z"/>
</mask>
<path d="M300 700V699H299V700H300ZM400 700H401V699H400V700ZM400 800V801H401V800H400ZM300 800H299V801H300V800ZM300 701H400V699H300V701ZM399 700V800H401V700H399ZM400 799H300V801H400V799ZM301 800V700H299V800H301Z" fill="#5E5E5E" mask="url(#path-129-inside-65_133_3)"/>
<mask id="path-131-inside-66_133_3" fill="white">
<path d="M400 700H500V800H400V700Z"/>
</mask>
<path d="M400 700V699H399V700H400ZM500 700H501V699H500V700ZM500 800V801H501V800H500ZM400 800H399V801H400V800ZM400 701H500V699H400V701ZM499 700V800H501V700H499ZM500 799H400V801H500V799ZM401 800V700H399V800H401Z" fill="#5E5E5E" mask="url(#path-131-inside-66_133_3)"/>
<mask id="path-133-inside-67_133_3" fill="white">
<path d="M500 700H600V800H500V700Z"/>
</mask>
<path d="M500 700V699H499V700H500ZM600 700H601V699H600V700ZM600 800V801H601V800H600ZM500 800H499V801H500V800ZM500 701H600V699H500V701ZM599 700V800H601V700H599ZM600 799H500V801H600V799ZM501 800V700H499V800H501Z" fill="#5E5E5E" mask="url(#path-133-inside-67_133_3)"/>
<mask id="path-135-inside-68_133_3" fill="white">
<path d="M600 700H700V800H600V700Z"/>
</mask>
<path d="M600 700V699H599V700H600ZM700 700H701V699H700V700ZM700 800V801H701V800H700ZM600 800H599V801H600V800ZM600 701H700V699H600V701ZM699 700V800H701V700H699ZM700 799H600V801H700V799ZM601 800V700H599V800H601Z" fill="#5E5E5E" mask="url(#path-135-inside-68_133_3)"/>
<mask id="path-137-inside-69_133_3" fill="white">
<path d="M700 700H800V800H700V700Z"/>
</mask>
<path d="M700 700V699H699V700H700ZM800 700H801V699H800V700ZM800 800V801H801V800H800ZM700 800H699V801H700V800ZM700 701H800V699H700V701ZM799 700V800H801V700H799ZM800 799H700V801H800V799ZM701 800V700H699V800H701Z" fill="#5E5E5E" mask="url(#path-137-inside-69_133_3)"/>
<mask id="path-139-inside-70_133_3" fill="white">
<path d="M800 700H900V800H800V700Z"/>
</mask>
<path d="M800 700V699H799V700H800ZM900 700H901V699H900V700ZM900 800V801H901V800H900ZM800 800H799V801H800V800ZM800 701H900V699H800V701ZM899 700V800H901V700H899ZM900 799H800V801H900V799ZM801 800V700H799V800H801Z" fill="#5E5E5E" mask="url(#path-139-inside-70_133_3)"/>
<mask id="path-141-inside-71_133_3" fill="white">
<path d="M900 700H1000V800H900V700Z"/>
</mask>
<path d="M900 700V699H899V700H900ZM1000 700H1001V699H1000V700ZM1000 800V801H1001V800H1000ZM900 800H899V801H900V800ZM900 701H1000V699H900V701ZM999 700V800H1001V700H999ZM1000 799H900V801H1000V799ZM901 800V700H899V800H901Z" fill="#5E5E5E" mask="url(#path-141-inside-71_133_3)"/>
<mask id="path-143-inside-72_133_3" fill="white">
<path d="M300 600H400V700H300V600Z"/>
</mask>
<path d="M300 600V599H299V600H300ZM400 600H401V599H400V600ZM400 700V701H401V700H400ZM300 700H299V701H300V700ZM300 601H400V599H300V601ZM399 600V700H401V600H399ZM400 699H300V701H400V699ZM301 700V600H299V700H301Z" fill="#5E5E5E" mask="url(#path-143-inside-72_133_3)"/>
<mask id="path-145-inside-73_133_3" fill="white">
<path d="M400 600H500V700H400V600Z"/>
</mask>
<path d="M400 600V599H399V600H400ZM500 600H501V599H500V600ZM500 700V701H501V700H500ZM400 700H399V701H400V700ZM400 601H500V599H400V601ZM499 600V700H501V600H499ZM500 699H400V701H500V699ZM401 700V600H399V700H401Z" fill="#5E5E5E" mask="url(#path-145-inside-73_133_3)"/>
<mask id="path-147-inside-74_133_3" fill="white">
<path d="M500 600H600V700H500V600Z"/>
</mask>
<path d="M500 600V599H499V600H500ZM600 600H601V599H600V600ZM600 700V701H601V700H600ZM500 700H499V701H500V700ZM500 601H600V599H500V601ZM599 600V700H601V600H599ZM600 699H500V701H600V699ZM501 700V600H499V700H501Z" fill="#5E5E5E" mask="url(#path-147-inside-74_133_3)"/>
<mask id="path-149-inside-75_133_3" fill="white">
<path d="M600 600H700V700H600V600Z"/>
</mask>
<path d="M600 600V599H599V600H600ZM700 600H701V599H700V600ZM700 700V701H701V700H700ZM600 700H599V701H600V700ZM600 601H700V599H600V601ZM699 600V700H701V600H699ZM700 699H600V701H700V699ZM601 700V600H599V700H601Z" fill="#5E5E5E" mask="url(#path-149-inside-75_133_3)"/>
<mask id="path-151-inside-76_133_3" fill="white">
<path d="M700 600H800V700H700V600Z"/>
</mask>
<path d="M700 600V599H699V600H700ZM800 600H801V599H800V600ZM800 700V701H801V700H800ZM700 700H699V701H700V700ZM700 601H800V599H700V601ZM799 600V700H801V600H799ZM800 699H700V701H800V699ZM701 700V600H699V700H701Z" fill="#5E5E5E" mask="url(#path-151-inside-76_133_3)"/>
<mask id="path-153-inside-77_133_3" fill="white">
<path d="M800 600H900V700H800V600Z"/>
</mask>
<path d="M800 600V599H799V600H800ZM900 600H901V599H900V600ZM900 700V701H901V700H900ZM800 700H799V701H800V700ZM800 601H900V599H800V601ZM899 600V700H901V600H899ZM900 699H800V701H900V699ZM801 700V600H799V700H801Z" fill="#5E5E5E" mask="url(#path-153-inside-77_133_3)"/>
<mask id="path-155-inside-78_133_3" fill="white">
<path d="M900 600H1000V700H900V600Z"/>
</mask>
<path d="M900 600V599H899V600H900ZM1000 600H1001V599H1000V600ZM1000 700V701H1001V700H1000ZM900 700H899V701H900V700ZM900 601H1000V599H900V601ZM999 600V700H1001V600H999ZM1000 699H900V701H1000V699ZM901 700V600H899V700H901Z" fill="#5E5E5E" mask="url(#path-155-inside-78_133_3)"/>
<mask id="path-157-inside-79_133_3" fill="white">
<path d="M100 600H200V700H100V600Z"/>
</mask>
<path d="M100 600V599H99V600H100ZM200 600H201V599H200V600ZM200 700V701H201V700H200ZM100 700H99V701H100V700ZM100 601H200V599H100V601ZM199 600V700H201V600H199ZM200 699H100V701H200V699ZM101 700V600H99V700H101Z" fill="#5E5E5E" mask="url(#path-157-inside-79_133_3)"/>
<mask id="path-159-inside-80_133_3" fill="white">
<path d="M200 600H300V700H200V600Z"/>
</mask>
<path d="M200 600V599H199V600H200ZM300 600H301V599H300V600ZM300 700V701H301V700H300ZM200 700H199V701H200V700ZM200 601H300V599H200V601ZM299 600V700H301V600H299ZM300 699H200V701H300V699ZM201 700V600H199V700H201Z" fill="#5E5E5E" mask="url(#path-159-inside-80_133_3)"/>
<mask id="path-161-inside-81_133_3" fill="white">
<path d="M0 800H100V900H0V800Z"/>
</mask>
<path d="M0 800V799H-1V800H0ZM100 800H101V799H100V800ZM100 900V901H101V900H100ZM0 900H-1V901H0V900ZM0 801H100V799H0V801ZM99 800V900H101V800H99ZM100 899H0V901H100V899ZM1 900V800H-1V900H1Z" fill="#5E5E5E" mask="url(#path-161-inside-81_133_3)"/>
<mask id="path-163-inside-82_133_3" fill="white">
<path d="M0 900H100V1000H0V900Z"/>
</mask>
<path d="M0 900V899H-1V900H0ZM100 900H101V899H100V900ZM100 1000V1001H101V1000H100ZM0 1000H-1V1001H0V1000ZM0 901H100V899H0V901ZM99 900V1000H101V900H99ZM100 999H0V1001H100V999ZM1 1000V900H-1V1000H1Z" fill="#5E5E5E" mask="url(#path-163-inside-82_133_3)"/>
<mask id="path-165-inside-83_133_3" fill="white">
<path d="M100 900H200V1000H100V900Z"/>
</mask>
<path d="M100 900V899H99V900H100ZM200 900H201V899H200V900ZM200 1000V1001H201V1000H200ZM100 1000H99V1001H100V1000ZM100 901H200V899H100V901ZM199 900V1000H201V900H199ZM200 999H100V1001H200V999ZM101 1000V900H99V1000H101Z" fill="#5E5E5E" mask="url(#path-165-inside-83_133_3)"/>
<mask id="path-167-inside-84_133_3" fill="white">
<path d="M200 900H300V1000H200V900Z"/>
</mask>
<path d="M200 900V899H199V900H200ZM300 900H301V899H300V900ZM300 1000V1001H301V1000H300ZM200 1000H199V1001H200V1000ZM200 901H300V899H200V901ZM299 900V1000H301V900H299ZM300 999H200V1001H300V999ZM201 1000V900H199V1000H201Z" fill="#5E5E5E" mask="url(#path-167-inside-84_133_3)"/>
<mask id="path-169-inside-85_133_3" fill="white">
<path d="M300 900H400V1000H300V900Z"/>
</mask>
<path d="M300 900V899H299V900H300ZM400 900H401V899H400V900ZM400 1000V1001H401V1000H400ZM300 1000H299V1001H300V1000ZM300 901H400V899H300V901ZM399 900V1000H401V900H399ZM400 999H300V1001H400V999ZM301 1000V900H299V1000H301Z" fill="#5E5E5E" mask="url(#path-169-inside-85_133_3)"/>
<mask id="path-171-inside-86_133_3" fill="white">
<path d="M400 900H500V1000H400V900Z"/>
</mask>
<path d="M400 900V899H399V900H400ZM500 900H501V899H500V900ZM500 1000V1001H501V1000H500ZM400 1000H399V1001H400V1000ZM400 901H500V899H400V901ZM499 900V1000H501V900H499ZM500 999H400V1001H500V999ZM401 1000V900H399V1000H401Z" fill="#5E5E5E" mask="url(#path-171-inside-86_133_3)"/>
<mask id="path-173-inside-87_133_3" fill="white">
<path d="M500 900H600V1000H500V900Z"/>
</mask>
<path d="M500 900V899H499V900H500ZM600 900H601V899H600V900ZM600 1000V1001H601V1000H600ZM500 1000H499V1001H500V1000ZM500 901H600V899H500V901ZM599 900V1000H601V900H599ZM600 999H500V1001H600V999ZM501 1000V900H499V1000H501Z" fill="#5E5E5E" mask="url(#path-173-inside-87_133_3)"/>
<mask id="path-175-inside-88_133_3" fill="white">
<path d="M600 900H700V1000H600V900Z"/>
</mask>
<path d="M600 900V899H599V900H600ZM700 900H701V899H700V900ZM700 1000V1001H701V1000H700ZM600 1000H599V1001H600V1000ZM600 901H700V899H600V901ZM699 900V1000H701V900H699ZM700 999H600V1001H700V999ZM601 1000V900H599V1000H601Z" fill="#5E5E5E" mask="url(#path-175-inside-88_133_3)"/>
<mask id="path-177-inside-89_133_3" fill="white">
<path d="M700 900H800V1000H700V900Z"/>
</mask>
<path d="M700 900V899H699V900H700ZM800 900H801V899H800V900ZM800 1000V1001H801V1000H800ZM700 1000H699V1001H700V1000ZM700 901H800V899H700V901ZM799 900V1000H801V900H799ZM800 999H700V1001H800V999ZM701 1000V900H699V1000H701Z" fill="#5E5E5E" mask="url(#path-177-inside-89_133_3)"/>
<mask id="path-179-inside-90_133_3" fill="white">
<path d="M800 900H900V1000H800V900Z"/>
</mask>
<path d="M800 900V899H799V900H800ZM900 900H901V899H900V900ZM900 1000V1001H901V1000H900ZM800 1000H799V1001H800V1000ZM800 901H900V899H800V901ZM899 900V1000H901V900H899ZM900 999H800V1001H900V999ZM801 1000V900H799V1000H801Z" fill="#5E5E5E" mask="url(#path-179-inside-90_133_3)"/>
<mask id="path-181-inside-91_133_3" fill="white">
<path d="M900 900H1000V1000H900V900Z"/>
</mask>
<path d="M900 900V899H899V900H900ZM1000 900H1001V899H1000V900ZM1000 1000V1001H1001V1000H1000ZM900 1000H899V1001H900V1000ZM900 901H1000V899H900V901ZM999 900V1000H1001V900H999ZM1000 999H900V1001H1000V999ZM901 1000V900H899V1000H901Z" fill="#5E5E5E" mask="url(#path-181-inside-91_133_3)"/>
<mask id="path-183-inside-92_133_3" fill="white">
<path d="M300 800H400V900H300V800Z"/>
</mask>
<path d="M300 800V799H299V800H300ZM400 800H401V799H400V800ZM400 900V901H401V900H400ZM300 900H299V901H300V900ZM300 801H400V799H300V801ZM399 800V900H401V800H399ZM400 899H300V901H400V899ZM301 900V800H299V900H301Z" fill="#5E5E5E" mask="url(#path-183-inside-92_133_3)"/>
<mask id="path-185-inside-93_133_3" fill="white">
<path d="M400 800H500V900H400V800Z"/>
</mask>
<path d="M400 800V799H399V800H400ZM500 800H501V799H500V800ZM500 900V901H501V900H500ZM400 900H399V901H400V900ZM400 801H500V799H400V801ZM499 800V900H501V800H499ZM500 899H400V901H500V899ZM401 900V800H399V900H401Z" fill="#5E5E5E" mask="url(#path-185-inside-93_133_3)"/>
<mask id="path-187-inside-94_133_3" fill="white">
<path d="M500 800H600V900H500V800Z"/>
</mask>
<path d="M500 800V799H499V800H500ZM600 800H601V799H600V800ZM600 900V901H601V900H600ZM500 900H499V901H500V900ZM500 801H600V799H500V801ZM599 800V900H601V800H599ZM600 899H500V901H600V899ZM501 900V800H499V900H501Z" fill="#5E5E5E" mask="url(#path-187-inside-94_133_3)"/>
<mask id="path-189-inside-95_133_3" fill="white">
<path d="M600 800H700V900H600V800Z"/>
</mask>
<path d="M600 800V799H599V800H600ZM700 800H701V799H700V800ZM700 900V901H701V900H700ZM600 900H599V901H600V900ZM600 801H700V799H600V801ZM699 800V900H701V800H699ZM700 899H600V901H700V899ZM601 900V800H599V900H601Z" fill="#5E5E5E" mask="url(#path-189-inside-95_133_3)"/>
<mask id="path-191-inside-96_133_3" fill="white">
<path d="M700 800H800V900H700V800Z"/>
</mask>
<path d="M700 800V799H699V800H700ZM800 800H801V799H800V800ZM800 900V901H801V900H800ZM700 900H699V901H700V900ZM700 801H800V799H700V801ZM799 800V900H801V800H799ZM800 899H700V901H800V899ZM701 900V800H699V900H701Z" fill="#5E5E5E" mask="url(#path-191-inside-96_133_3)"/>
<mask id="path-193-inside-97_133_3" fill="white">
<path d="M800 800H900V900H800V800Z"/>
</mask>
<path d="M800 800V799H799V800H800ZM900 800H901V799H900V800ZM900 900V901H901V900H900ZM800 900H799V901H800V900ZM800 801H900V799H800V801ZM899 800V900H901V800H899ZM900 899H800V901H900V899ZM801 900V800H799V900H801Z" fill="#5E5E5E" mask="url(#path-193-inside-97_133_3)"/>
<mask id="path-195-inside-98_133_3" fill="white">
<path d="M900 800H1000V900H900V800Z"/>
</mask>
<path d="M900 800V799H899V800H900ZM1000 800H1001V799H1000V800ZM1000 900V901H1001V900H1000ZM900 900H899V901H900V900ZM900 801H1000V799H900V801ZM999 800V900H1001V800H999ZM1000 899H900V901H1000V899ZM901 900V800H899V900H901Z" fill="#5E5E5E" mask="url(#path-195-inside-98_133_3)"/>
<mask id="path-197-inside-99_133_3" fill="white">
<path d="M100 800H200V900H100V800Z"/>
</mask>
<path d="M100 800V799H99V800H100ZM200 800H201V799H200V800ZM200 900V901H201V900H200ZM100 900H99V901H100V900ZM100 801H200V799H100V801ZM199 800V900H201V800H199ZM200 899H100V901H200V899ZM101 900V800H99V900H101Z" fill="#5E5E5E" mask="url(#path-197-inside-99_133_3)"/>
<mask id="path-199-inside-100_133_3" fill="white">
<path d="M200 800H300V900H200V800Z"/>
</mask>
<path d="M200 800V799H199V800H200ZM300 800H301V799H300V800ZM300 900V901H301V900H300ZM200 900H199V901H200V900ZM200 801H300V799H200V801ZM299 800V900H301V800H299ZM300 899H200V901H300V899ZM201 900V800H199V900H201Z" fill="#5E5E5E" mask="url(#path-199-inside-100_133_3)"/>
<line x1="200.5" y1="6.55671e-08" x2="200.5" y2="1000" stroke="black" stroke-width="3"/>
<line x1="400.5" y1="6.55671e-08" x2="400.5" y2="1000" stroke="black" stroke-width="3"/>
<line x1="600.5" y1="6.55671e-08" x2="600.5" y2="1000" stroke="black" stroke-width="3"/>
<line y1="199.5" x2="1000" y2="199.5" stroke="black" stroke-width="3"/>
<line y1="399.5" x2="1000" y2="399.5" stroke="black" stroke-width="3"/>
<line y1="599.5" x2="1000" y2="599.5" stroke="black" stroke-width="3"/>
<line y1="800.5" x2="1000" y2="800.5" stroke="black" stroke-width="3"/>
<line x1="800.5" y1="6.55671e-08" x2="800.5" y2="1000" stroke="black" stroke-width="3"/>
</g>
<defs>
<clipPath id="clip0_133_3">
<rect width="1000" height="1000" fill="white"/>
</clipPath>
</defs>
</svg>
